<svg width="123" height="135" viewBox="0 0 123 135" fill="none" xmlns="http://www.w3.org/2000/svg">
<path d="M98.688 38.608L81.12 106H61.248L50.496 61.648L39.36 106H19.488L2.4 38.608H19.968L29.664 87.664L41.664 38.608H59.712L71.232 87.664L81.024 38.608H98.688Z" fill="#0DFDD7"/>
<path d="M105.688 38.608L88.12 106H68.248L57.496 61.648L46.36 106H26.488L9.4 38.608H26.968L36.664 87.664L48.664 38.608H66.712L78.232 87.664L88.024 38.608H105.688Z" fill="#46CDFF"/>
<path d="M113.688 38.608L96.12 106H76.248L65.496 61.648L54.36 106H34.488L17.4 38.608H34.968L44.664 87.664L56.664 38.608H74.712L86.232 87.664L96.024 38.608H113.688Z" fill="#FC2054"/>
</svg>
