<svg width="115" height="75" viewBox="0 0 115 75" fill="none" xmlns="http://www.w3.org/2000/svg">
<path d="M100.08 5.592L78.528 75H66.864L51.696 27.576C51.28 26.424 50.896 25.016 50.544 23.352C50.352 24.152 50.16 24.904 49.968 25.608C49.776 26.312 49.568 26.968 49.344 27.576L34.032 75H22.32L0.816 5.592H11.616C12.736 5.592 13.664 5.864 14.4 6.408C15.168 6.92 15.68 7.62399 15.936 8.51999L27.744 50.04C28 51.064 28.24 52.184 28.464 53.4C28.72 54.584 28.976 55.832 29.232 57.144C29.488 55.8 29.76 54.536 30.048 53.352C30.368 52.168 30.704 51.064 31.056 50.04L44.688 8.51999C44.944 7.78399 45.44 7.112 46.176 6.504C46.944 5.896 47.872 5.592 48.96 5.592H52.752C53.872 5.592 54.784 5.864 55.488 6.408C56.192 6.952 56.72 7.656 57.072 8.51999L70.656 50.04C71.328 52.024 71.936 54.312 72.48 56.904C72.896 54.376 73.36 52.088 73.872 50.04L85.68 8.51999C85.872 7.72 86.352 7.032 87.12 6.456C87.92 5.88 88.864 5.592 89.952 5.592H100.08Z" fill="#0DFDD7"/>
<path d="M107.08 5.592L85.528 75H73.864L58.696 27.576C58.28 26.424 57.896 25.016 57.544 23.352C57.352 24.152 57.16 24.904 56.968 25.608C56.776 26.312 56.568 26.968 56.344 27.576L41.032 75H29.32L7.816 5.592H18.616C19.736 5.592 20.664 5.864 21.4 6.408C22.168 6.92 22.68 7.62399 22.936 8.51999L34.744 50.04C35 51.064 35.24 52.184 35.464 53.4C35.72 54.584 35.976 55.832 36.232 57.144C36.488 55.8 36.76 54.536 37.048 53.352C37.368 52.168 37.704 51.064 38.056 50.04L51.688 8.51999C51.944 7.78399 52.44 7.112 53.176 6.504C53.944 5.896 54.872 5.592 55.96 5.592H59.752C60.872 5.592 61.784 5.864 62.488 6.408C63.192 6.952 63.72 7.656 64.072 8.51999L77.656 50.04C78.328 52.024 78.936 54.312 79.48 56.904C79.896 54.376 80.36 52.088 80.872 50.04L92.68 8.51999C92.872 7.72 93.352 7.032 94.12 6.456C94.92 5.88 95.864 5.592 96.952 5.592H107.08Z" fill="#46CDFF"/>
<path d="M114.08 5.592L92.528 75H80.864L65.696 27.576C65.28 26.424 64.896 25.016 64.544 23.352C64.352 24.152 64.16 24.904 63.968 25.608C63.776 26.312 63.568 26.968 63.344 27.576L48.032 75H36.32L14.816 5.592H25.616C26.736 5.592 27.664 5.864 28.4 6.408C29.168 6.92 29.68 7.62399 29.936 8.51999L41.744 50.04C42 51.064 42.24 52.184 42.464 53.4C42.72 54.584 42.976 55.832 43.232 57.144C43.488 55.8 43.76 54.536 44.048 53.352C44.368 52.168 44.704 51.064 45.056 50.04L58.688 8.51999C58.944 7.78399 59.44 7.112 60.176 6.504C60.944 5.896 61.872 5.592 62.96 5.592H66.752C67.872 5.592 68.784 5.864 69.488 6.408C70.192 6.952 70.72 7.656 71.072 8.51999L84.656 50.04C85.328 52.024 85.936 54.312 86.48 56.904C86.896 54.376 87.36 52.088 87.872 50.04L99.68 8.51999C99.872 7.72 100.352 7.032 101.12 6.456C101.92 5.88 102.864 5.592 103.952 5.592H114.08Z" fill="#FC2054"/>
</svg>
